TITLE ""
FILE "Disc3Track51.mp3" MP3
  TRACK 01 AUDIO
    TITLE "Disc3Track51_01"
    INDEX 01 00:00:00
  TRACK 02 AUDIO
    TITLE "Disc3Track51_02"
    INDEX 01 00:00:67
  TRACK 03 AUDIO
    TITLE "Disc3Track51_03"
    INDEX 01 00:02:15
  TRACK 04 AUDIO
    TITLE "Disc3Track51_04"
    INDEX 01 00:03:18
  TRACK 05 AUDIO
    TITLE "Disc3Track51_05"
    INDEX 01 00:06:48
  TRACK 06 AUDIO
    TITLE "Disc3Track51_06"
    INDEX 01 00:07:04
  TRACK 07 AUDIO
    TITLE "Disc3Track51_07"
    INDEX 01 00:08:20
  TRACK 08 AUDIO
    TITLE "Disc3Track51_08"
    INDEX 01 00:09:13
  TRACK 09 AUDIO
    TITLE "Disc3Track51_09"
    INDEX 01 00:10:28
  TRACK 10 AUDIO
    TITLE "Disc3Track51_10"
    INDEX 01 00:10:67
  TRACK 11 AUDIO
    TITLE "Disc3Track51_11"
    INDEX 01 00:12:10
  TRACK 12 AUDIO
    TITLE "Disc3Track51_12"
    INDEX 01 00:13:13
  TRACK 13 AUDIO
    TITLE "Disc3Track51_13"
    INDEX 01 00:14:26
  TRACK 14 AUDIO
    TITLE "Disc3Track51_14"
    INDEX 01 00:16:29
  TRACK 15 AUDIO
    TITLE "Disc3Track51_15"
    INDEX 01 00:16:68
  TRACK 16 AUDIO
    TITLE "Disc3Track51_16"
    INDEX 01 00:18:32
  TRACK 17 AUDIO
    TITLE "Disc3Track51_17"
    INDEX 01 00:20:46
  TRACK 18 AUDIO
    TITLE "Disc3Track51_18"
    INDEX 01 00:22:10
  TRACK 19 AUDIO
    TITLE "Disc3Track51_19"
    INDEX 01 00:27:23
  TRACK 20 AUDIO
    TITLE "Disc3Track51_20"
    INDEX 01 00:27:54
  TRACK 21 AUDIO
    TITLE "Disc3Track51_21"
    INDEX 01 00:29:02
  TRACK 22 AUDIO
    TITLE "Disc3Track51_22"
    INDEX 01 00:30:68
  TRACK 23 AUDIO
    TITLE "Disc3Track51_23"
    INDEX 01 00:32:18
  TRACK 24 AUDIO
    TITLE "Disc3Track51_24"
    INDEX 01 00:32:57
  TRACK 25 AUDIO
    TITLE "Disc3Track51_25"
    INDEX 01 00:34:17
  TRACK 26 AUDIO
    TITLE "Disc3Track51_26"
    INDEX 01 00:35:18
  TRACK 27 AUDIO
    TITLE "Disc3Track51_27"
    INDEX 01 00:36:51
  TRACK 28 AUDIO
    TITLE "Disc3Track51_28"
    INDEX 01 00:37:15
  TRACK 29 AUDIO
    TITLE "Disc3Track51_29"
    INDEX 01 00:38:44
  TRACK 30 AUDIO
    TITLE "Disc3Track51_30"
    INDEX 01 00:40:33
  TRACK 31 AUDIO
    TITLE "Disc3Track51_31"
    INDEX 01 00:41:58
  TRACK 32 AUDIO
    TITLE "Disc3Track51_32"
    INDEX 01 00:44:66
  TRACK 33 AUDIO
    TITLE "Disc3Track51_33"
    INDEX 01 00:45:23
  TRACK 34 AUDIO
    TITLE "Disc3Track51_34"
    INDEX 01 00:46:38
  TRACK 35 AUDIO
    TITLE "Disc3Track51_35"
    INDEX 01 00:47:49
  TRACK 36 AUDIO
    TITLE "Disc3Track51_36"
    INDEX 01 00:48:62
  TRACK 37 AUDIO
    TITLE "Disc3Track51_37"
    INDEX 01 00:52:17
  TRACK 38 AUDIO
    TITLE "Disc3Track51_38"
    INDEX 01 00:52:46
  TRACK 39 AUDIO
    TITLE "Disc3Track51_39"
    INDEX 01 00:54:02
  TRACK 40 AUDIO
    TITLE "Disc3Track51_40"
    INDEX 01 00:54:73
  TRACK 41 AUDIO
    TITLE "Disc3Track51_41"
    INDEX 01 00:56:25
  TRACK 42 AUDIO
    TITLE "Disc3Track51_42"
    INDEX 01 00:58:31
  TRACK 43 AUDIO
    TITLE "Disc3Track51_43"
    INDEX 01 00:58:63
  TRACK 44 AUDIO
    TITLE "Disc3Track51_44"
    INDEX 01 01:00:12
  TRACK 45 AUDIO
    TITLE "Disc3Track51_45"
    INDEX 01 01:01:43
  TRACK 46 AUDIO
    TITLE "Disc3Track51_46"
    INDEX 01 01:02:68
  TRACK 47 AUDIO
    TITLE "Disc3Track51_47"
    INDEX 01 01:03:32
  TRACK 48 AUDIO
    TITLE "Disc3Track51_48"
    INDEX 01 01:04:63
  TRACK 49 AUDIO
    TITLE "Disc3Track51_49"
    INDEX 01 01:05:67
  TRACK 50 AUDIO
    TITLE "Disc3Track51_50"
    INDEX 01 01:07:22
  TRACK 51 AUDIO
    TITLE "Disc3Track51_51"
    INDEX 01 01:09:58
  TRACK 52 AUDIO
    TITLE "Disc3Track51_52"
    INDEX 01 01:10:13
  TRACK 53 AUDIO
    TITLE "Disc3Track51_53"
    INDEX 01 01:11:32
  TRACK 54 AUDIO
    TITLE "Disc3Track51_54"
    INDEX 01 01:14:26
  TRACK 55 AUDIO
    TITLE "Disc3Track51_55"
    INDEX 01 01:15:45
  TRACK 56 AUDIO
    TITLE "Disc3Track51_56"
    INDEX 01 01:19:47
  TRACK 57 AUDIO
    TITLE "Disc3Track51_57"
    INDEX 01 01:20:03
  TRACK 58 AUDIO
    TITLE "Disc3Track51_58"
    INDEX 01 01:21:24
  TRACK 59 AUDIO
    TITLE "Disc3Track51_59"
    INDEX 01 01:23:74
  TRACK 60 AUDIO
    TITLE "Disc3Track51_60"
    INDEX 01 01:25:20
  TRACK 61 AUDIO
    TITLE "Disc3Track51_61"
    INDEX 01 01:28:73
  TRACK 62 AUDIO
    TITLE "Disc3Track51_62"
    INDEX 01 01:29:30
  TRACK 63 AUDIO
    TITLE "Disc3Track51_63"
    INDEX 01 01:30:53
  TRACK 64 AUDIO
    TITLE "Disc3Track51_64"
    INDEX 01 01:33:59
  TRACK 65 AUDIO
    TITLE "Disc3Track51_65"
    INDEX 01 01:35:03
  TRACK 66 AUDIO
    TITLE "Disc3Track51_66"
    INDEX 01 01:37:53
  TRACK 67 AUDIO
    TITLE "Disc3Track51_67"
    INDEX 01 01:38:09
  TRACK 68 AUDIO
    TITLE "Disc3Track51_68"
    INDEX 01 01:39:44
  TRACK 69 AUDIO
    TITLE "Disc3Track51_69"
    INDEX 01 01:40:45
  TRACK 70 AUDIO
    TITLE "Disc3Track51_70"
    INDEX 01 01:42:01
  TRACK 71 AUDIO
    TITLE "Disc3Track51_71"
    INDEX 01 01:45:62
